<?xml version="1.0" encoding="UTF-8" standalone="no"?>
<svg
   xmlns:dc="http://purl.org/dc/elements/1.1/"
   xmlns:cc="http://creativecommons.org/ns#"
   xmlns:rdf="http://www.w3.org/1999/02/22-rdf-syntax-ns#"
   xmlns:svg="http://www.w3.org/2000/svg"
   xmlns="http://www.w3.org/2000/svg"
   id="svg8"
   version="1.1"
   viewBox="0 0 48.091234 42.195298"
   height="159.47829"
   width="181.76215">
  <defs
     id="defs2" />
  <metadata
     id="metadata5">
    <rdf:RDF>
      <cc:Work
         rdf:about="">
        <dc:format>image/svg+xml</dc:format>
        <dc:type
           rdf:resource="http://purl.org/dc/dcmitype/StillImage" />
        <dc:title></dc:title>
      </cc:Work>
    </rdf:RDF>
  </metadata>
  <g
     transform="translate(-167.46865,-205.25226)"
     id="layer1">
    <path
       id="path29"
       d="m 179.52707,244.55918 c -6.36042,-3.23923 -12.05842,-11.72632 -12.05842,-17.96084 0,-8.2403 9.97605,-20.08976 16.86346,-20.03027 1.43344,0.0124 -0.12442,1.39808 -3.46191,3.07933 -14.99971,7.55604 -15.48782,24.98755 -0.94093,33.60253 4.48692,2.65726 6.91812,3.12504 13.74022,2.64374 6.98569,-0.49284 9.16781,-1.3572 13.88081,-5.49835 4.73863,-4.16367 5.68573,-6.02511 6.20558,-12.19658 0.97961,-11.62935 -5.80036,-18.97247 -19.99573,-21.65659 l -6.82179,-1.28989 6.87425,0.54642 c 7.81968,0.62157 13.30838,3.71024 18.57511,10.45284 4.59836,5.88693 4.13793,16.42138 -0.99454,22.7547 -6.90082,8.51542 -21.16752,11.00152 -31.86611,5.55296 z m 3.51735,-14.06332 c -4.09016,-3.82551 -2.63257,-4.70051 1.86827,-1.12153 2.74396,2.18195 3.24801,1.99324 9.82484,-3.67826 3.81288,-3.28801 7.42916,-5.5418 8.0362,-5.00843 1.30188,1.14392 -11.7896,13.2297 -14.33058,13.2297 -0.95731,0 -3.38674,-1.53967 -5.39873,-3.42148 z"
       style="fill:#d2d2d2;stroke-width:1.46002817" />
  </g>
</svg>
