<?xml version="1.0" encoding="UTF-8" standalone="no"?>
<svg
   xmlns:dc="http://purl.org/dc/elements/1.1/"
   xmlns:cc="http://creativecommons.org/ns#"
   xmlns:rdf="http://www.w3.org/1999/02/22-rdf-syntax-ns#"
   xmlns:svg="http://www.w3.org/2000/svg"
   xmlns="http://www.w3.org/2000/svg"
   id="svg3734"
   version="1.1"
   viewBox="0 0 36.730713 38.880848"
   height="38.880848mm"
   width="36.730713mm">
  <defs
     id="defs3728" />
  <metadata
     id="metadata3731">
    <rdf:RDF>
      <cc:Work
         rdf:about="">
        <dc:format>image/svg+xml</dc:format>
        <dc:type
           rdf:resource="http://purl.org/dc/dcmitype/StillImage" />
        <dc:title></dc:title>
      </cc:Work>
    </rdf:RDF>
  </metadata>
  <g
     transform="translate(-79.152495,-90.08339)"
     id="layer1">
    <path
       id="path3717"
       d="m 79.583764,128.34107 c -0.92972,-1.25084 -0.41265,-3.54468 2.10349,-9.3316 3.106,-7.14353 4.18611,-7.89404 6.39302,-4.44219 1.86297,2.91391 1.67881,3.08368 5.12404,-4.72368 1.04386,-2.36554 2.35539,-4.30099 2.9145,-4.30099 0.55911,0 1.89868,1.67674 2.97681,3.72608 1.078136,2.04934 2.261356,3.60076 2.629376,3.44761 0.36802,-0.15316 2.9591,-5.30822 5.75795,-11.45569 4.03431,-8.86105 5.40891,-11.17722 6.63346,-11.17722 0.86863,0 1.63948,0.66264 1.76136,1.51411 0.30675,2.14299 -12.46076,29.86947 -13.76252,29.8873 -0.58266,0.008 -2.183716,-1.74392 -3.557896,-3.89311 l -2.49852,-3.90763 -2.28364,5.36999 c -2.80527,6.59661 -3.90634,7.29567 -6.09623,3.87043 -0.91683,-1.43402 -1.74227,-2.45326 -1.83431,-2.26497 -0.092,0.18828 -1.02055,2.1342 -2.06334,4.32425 -1.78,3.73831 -3.11858,4.80894 -4.19755,3.35731 z"
       style="fill:#070707;stroke-width:0.80775374" />
  </g>
</svg>
