<?xml version="1.0" encoding="UTF-8" standalone="no"?>
<svg
   xmlns:dc="http://purl.org/dc/elements/1.1/"
   xmlns:cc="http://creativecommons.org/ns#"
   xmlns:rdf="http://www.w3.org/1999/02/22-rdf-syntax-ns#"
   xmlns:svg="http://www.w3.org/2000/svg"
   xmlns="http://www.w3.org/2000/svg"
   id="svg3757"
   version="1.1"
   viewBox="0 0 56.355202 42.951176"
   height="42.951176mm"
   width="56.355202mm">
  <defs
     id="defs3751" />
  <metadata
     id="metadata3754">
    <rdf:RDF>
      <cc:Work
         rdf:about="">
        <dc:format>image/svg+xml</dc:format>
        <dc:type
           rdf:resource="http://purl.org/dc/dcmitype/StillImage" />
        <dc:title></dc:title>
      </cc:Work>
    </rdf:RDF>
  </metadata>
  <g
     transform="translate(-87.483113,-155.32798)"
     id="layer1">
    <path
       id="path3715"
       d="m 101.79397,187.75488 c -8.334751,-7.24606 -12.526901,-11.636 -13.458341,-14.09334 -4.71236,-12.43213 11.08502,-23.21277 23.481061,-16.02422 l 4.12265,2.39075 2.53034,-2.03136 c 1.49633,-1.20125 4.50795,-2.22183 7.36981,-2.49748 11.88494,-1.14475 20.86415,8.36433 17.15026,18.16231 -1.54148,4.06674 -24.35421,24.61762 -27.32706,24.61762 -0.96977,0 -7.21069,-4.73593 -13.86872,-10.52428 z m 25.60948,-3.80155 c 7.38752,-6.48861 11.23224,-10.61019 11.73989,-12.58528 0.98789,-3.84357 -1.96137,-9.2071 -6.05821,-11.01749 -5.28503,-2.33546 -8.59456,-1.72948 -13.21302,2.41933 l -4.20942,3.78135 -4.20942,-3.78135 c -4.61847,-4.14881 -7.92799,-4.75479 -13.213021,-2.41933 -4.09685,1.81039 -7.0461,7.17392 -6.05821,11.01749 0.50764,1.97509 4.35236,6.09667 11.739891,12.58528 6.04176,5.3066 11.32511,9.64837 11.74076,9.64837 0.41565,0 5.69899,-4.34177 11.74076,-9.64837 z m 1.10653,-7.74967 c -1.02766,-0.87818 0.37096,-3.18276 1.93158,-3.18276 1.56061,0 2.95924,2.30458 1.93157,3.18276 -0.35991,0.30756 -1.22912,0.5592 -1.93157,0.5592 -0.70246,0 -1.57167,-0.25164 -1.93158,-0.5592 z m 3.23157,-4.72243 c -0.41395,-0.35373 -0.75263,-1.37981 -0.75263,-2.28019 0,-0.90037 -1.30668,-2.45043 -2.90374,-3.44459 -1.67525,-1.04282 -2.57422,-2.26317 -2.12486,-2.8845 2.2464,-3.10603 9.78869,1.90781 9.20454,6.11885 -0.34488,2.4862 -2.01038,3.69784 -3.42331,2.49043 z"
       style="fill:#090909;stroke-width:1.01198375" />
  </g>
</svg>
