<?xml version="1.0" encoding="UTF-8" standalone="no"?>
<svg
   xmlns:dc="http://purl.org/dc/elements/1.1/"
   xmlns:cc="http://creativecommons.org/ns#"
   xmlns:rdf="http://www.w3.org/1999/02/22-rdf-syntax-ns#"
   xmlns:svg="http://www.w3.org/2000/svg"
   xmlns="http://www.w3.org/2000/svg"
   id="svg87"
   version="1.1"
   viewBox="0 0 31.552139 31.424158"
   height="31.424158mm"
   width="31.552139mm">
  <defs
     id="defs81" />
  <metadata
     id="metadata84">
    <rdf:RDF>
      <cc:Work
         rdf:about="">
        <dc:format>image/svg+xml</dc:format>
        <dc:type
           rdf:resource="http://purl.org/dc/dcmitype/StillImage" />
        <dc:title></dc:title>
      </cc:Work>
    </rdf:RDF>
  </metadata>
  <g
     transform="translate(-104.42036,-111.19863)"
     id="layer1">
    <path
       id="path43"
       d="m 118.56004,142.52004 c -1.95702,-0.25912 -4.91874,-1.22661 -6.38446,-2.08558 -2.15063,-1.26035 -5.34405,-4.78616 -6.30692,-6.96338 -3.62673,-8.20068 -0.23579,-17.32389 7.86552,-21.16195 2.22425,-1.05376 2.58397,-1.11603 6.41336,-1.11017 4.65848,0.007 6.66538,0.60967 9.69296,2.91013 3.82067,2.90308 5.82529,6.76875 6.09766,11.75861 0.26082,4.77834 -0.95034,8.21643 -4.11379,11.67775 -3.19774,3.49884 -8.73263,5.57462 -13.26433,4.97459 z m 4.42396,-1.16749 c 4.46083,-0.84598 8.78508,-4.15819 10.68366,-8.18327 2.64846,-5.6149 1.41817,-12.55414 -3.01038,-16.97952 -5.65979,-5.65573 -14.68523,-5.76311 -20.52072,-0.24414 -8.56371,8.09919 -4.93573,22.12348 6.52012,25.20413 2.30985,0.62116 3.85945,0.67082 6.32732,0.2028 z m -7.91606,-6.64234 c -0.10029,-0.16228 0.12726,-1.31322 0.50566,-2.55764 0.3784,-1.24443 0.68089,-2.50072 0.6722,-2.79176 -0.009,-0.29104 -0.96607,-1.31207 -2.1275,-2.26895 -2.63743,-2.17293 -2.62975,-2.81195 0.0353,-2.93778 3.37884,-0.15952 3.46863,-0.21748 4.79936,-3.09767 0.66876,-1.44744 1.42994,-2.63171 1.69151,-2.63171 0.26158,0 1.0073,1.18156 1.65716,2.62569 1.27771,2.83936 1.51285,3.00591 4.25523,3.01393 3.45567,0.0101 3.55603,0.62682 0.51179,3.14511 l -2.25109,1.86217 0.66089,2.17307 c 0.77039,2.53309 0.84398,3.76103 0.22532,3.75946 -0.24254,-6.1e-4 -1.39347,-0.63511 -2.55764,-1.40999 -1.16417,-0.77487 -2.27542,-1.40886 -2.46944,-1.40886 -0.19403,0 -1.30528,0.63399 -2.46945,1.40886 -2.13224,1.41923 -2.80429,1.65815 -3.13932,1.11607 z m 7.19403,-3.45248 c 0.81295,0.53798 1.55005,0.9062 1.63799,0.81825 0.088,-0.088 -0.032,-0.92221 -0.26665,-1.85391 l -0.42656,-1.69401 1.7319,-1.50247 1.7319,-1.50246 -1.93859,-0.10964 -1.93859,-0.10963 -1.09044,-2.05332 -1.09045,-2.05333 -1.02622,2.05333 -1.02622,2.05332 -1.93516,0.17639 -1.93517,0.17639 1.70117,1.39048 c 1.54606,1.26369 1.67889,1.48885 1.45684,2.46944 -0.13437,0.59343 -0.32958,1.45807 -0.43379,1.92142 l -0.18948,0.84245 1.77971,-1.00042 1.77972,-1.00043 z"
       style="fill:#767676;stroke-width:0.35277775" />
  </g>
</svg>
