<?xml version="1.0" encoding="UTF-8" standalone="no"?>
<svg
   xmlns:dc="http://purl.org/dc/elements/1.1/"
   xmlns:cc="http://creativecommons.org/ns#"
   xmlns:rdf="http://www.w3.org/1999/02/22-rdf-syntax-ns#"
   xmlns:svg="http://www.w3.org/2000/svg"
   xmlns="http://www.w3.org/2000/svg"
   id="svg3757"
   version="1.1"
   viewBox="0 0 39.429756 41.802792"
   height="41.802792mm"
   width="39.429756mm">
  <defs
     id="defs3751" />
  <metadata
     id="metadata3754">
    <rdf:RDF>
      <cc:Work
         rdf:about="">
        <dc:format>image/svg+xml</dc:format>
        <dc:type
           rdf:resource="http://purl.org/dc/dcmitype/StillImage" />
        <dc:title></dc:title>
      </cc:Work>
    </rdf:RDF>
  </metadata>
  <g
     transform="translate(-103.50536,-140.78313)"
     id="layer1">
    <path
       id="path3715"
       d="m 120.53959,182.39301 c -6.93848,-0.93147 -13.45878,-6.35717 -15.91873,-13.24637 -1.62659,-4.55532 -1.45257,-12.05732 0.3799,-16.37731 1.64311,-3.87356 5.84951,-8.41489 9.59028,-10.35388 2.80132,-1.45204 3.76746,-1.63232 8.74799,-1.63232 4.98053,0 5.94667,0.18028 8.74799,1.63232 3.71377,1.925 7.91721,6.44537 9.62794,10.35388 0.99619,2.27598 1.22015,3.87237 1.22015,8.69721 0,7.13464 -0.99721,9.89546 -5.31463,14.7138 -4.38642,4.89534 -10.45412,7.10229 -17.08089,6.21267 z m 9.40763,-2.65857 c 1.52922,-0.54997 3.93961,-2.18515 5.64234,-3.8277 13.55306,-13.07404 2.98833,-36.36913 -15.20325,-33.52292 -14.08081,2.20305 -20.452276,20.61907 -10.98065,31.73836 3.04914,3.57955 5.24502,5.06456 9.21988,6.23514 3.45239,1.01672 7.36053,0.80171 11.32168,-0.62288 z m -16.698,-8.74868 c -0.90545,-0.69881 -0.95332,-0.96538 -0.3184,-1.77286 0.63389,-0.80617 2.21669,-0.95038 10.43097,-0.95038 5.32604,0 10.08223,0.16142 10.56932,0.3587 1.14554,0.46398 1.14554,2.36435 0,2.82832 -0.48709,0.19729 -5.10001,0.35871 -10.25092,0.35871 -7.11736,0 -9.62108,-0.19742 -10.43097,-0.82249 z m 11.90945,-0.7827 c -0.84683,-0.1354 -2.23256,-0.1354 -3.07939,0 -0.84683,0.13541 -0.15397,0.24619 1.53969,0.24619 1.69367,0 2.38653,-0.11078 1.5397,-0.24619 z m -11.05779,-10.09571 c 0,-4.63571 0.22522,-7.21099 0.67186,-7.68241 0.46174,-0.48736 3.25091,-0.70915 8.91822,-0.70915 6.75016,0 8.40598,0.16849 9.12617,0.92864 0.6972,0.73588 0.87983,2.33057 0.87983,7.68241 0,6.3598 -0.0653,6.75377 -1.11978,6.75377 -1.05191,0 -1.11977,-0.39397 -1.11977,-6.5005 v -6.5005 h -7.55849 -7.55849 v 6.5005 c 0,6.10653 -0.0679,6.5005 -1.11978,6.5005 -1.05651,0 -1.11977,-0.39397 -1.11977,-6.97326 z m 5.87137,3.41933 c -1.52769,-1.68305 -1.56377,-1.83691 -0.65559,-2.79549 0.82101,-0.86655 1.13313,-0.90101 2.14145,-0.23636 1.06983,0.70519 1.40236,0.54808 3.5512,-1.67787 2.2398,-2.32016 2.42394,-2.39987 3.33135,-1.44212 0.90741,0.95776 0.78122,1.20503 -2.28298,4.47335 -1.78392,1.90276 -3.51917,3.45956 -3.85612,3.45956 -0.33695,0 -1.34014,-0.80149 -2.22931,-1.78107 z"
       style="fill:#121212;stroke-width:0.57521164" />
  </g>
</svg>
