<?xml version="1.0" encoding="UTF-8" standalone="no"?>
<!-- Created with Inkscape (http://www.inkscape.org/) -->

<svg
   xmlns:dc="http://purl.org/dc/elements/1.1/"
   xmlns:cc="http://creativecommons.org/ns#"
   xmlns:rdf="http://www.w3.org/1999/02/22-rdf-syntax-ns#"
   xmlns:svg="http://www.w3.org/2000/svg"
   xmlns="http://www.w3.org/2000/svg"
   xmlns:sodipodi="http://sodipodi.sourceforge.net/DTD/sodipodi-0.dtd"
   xmlns:inkscape="http://www.inkscape.org/namespaces/inkscape"
   width="37.216534mm"
   height="38.491291mm"
   viewBox="0 0 37.216534 38.491291"
   version="1.1"
   id="svg3780"
   inkscape:version="0.92.1 r15371"
   sodipodi:docname="icon-basket.svg">
  <defs
     id="defs3774" />
  <sodipodi:namedview
     id="base"
     pagecolor="#ffffff"
     bordercolor="#666666"
     borderopacity="1.0"
     inkscape:pageopacity="0.0"
     inkscape:pageshadow="2"
     inkscape:zoom="0.35"
     inkscape:cx="218.90188"
     inkscape:cy="318.45372"
     inkscape:document-units="mm"
     inkscape:current-layer="layer1"
     showgrid="false"
     fit-margin-top="0"
     fit-margin-left="0"
     fit-margin-right="0"
     fit-margin-bottom="0"
     inkscape:window-width="1680"
     inkscape:window-height="988"
     inkscape:window-x="-8"
     inkscape:window-y="-8"
     inkscape:window-maximized="1" />
  <metadata
     id="metadata3777">
    <rdf:RDF>
      <cc:Work
         rdf:about="">
        <dc:format>image/svg+xml</dc:format>
        <dc:type
           rdf:resource="http://purl.org/dc/dcmitype/StillImage" />
        <dc:title></dc:title>
      </cc:Work>
    </rdf:RDF>
  </metadata>
  <g
     inkscape:label="Layer 1"
     inkscape:groupmode="layer"
     id="layer1"
     transform="translate(-47.915543,-194.59959)">
    <path
       style="fill:#0c0c0c;stroke-width:0.53272539"
       d="m 61.599521,232.38788 c -3.55951,-1.00249 -5.711161,-2.29428 -8.4261,-5.05878 -3.489711,-3.55343 -4.911031,-6.89394 -5.207821,-12.23997 -0.29814,-5.37007 0.71873,-9.0877 3.50199,-12.80314 8.531581,-11.389 25.764957,-9.85645 31.923607,2.83894 1.599928,3.29809 1.740879,4.00322 1.740879,8.70945 0,4.70624 -0.140951,5.41137 -1.740879,8.70945 -3.96549,8.17443 -13.087966,12.29537 -21.791676,9.84405 z m 13.146069,-2.99344 c 6.840607,-3.70002 10.381737,-11.03442 8.997207,-18.63501 -1.03332,-5.6726 -3.965231,-9.74755 -9.010616,-12.52355 -3.11689,-1.71493 -3.67993,-1.84215 -8.10886,-1.83223 -3.8769,0.009 -5.21398,0.23821 -7.21107,1.23786 -3.923581,1.96395 -6.60479,4.65171 -8.464361,8.48502 -1.47498,3.0405 -1.70522,4.07338 -1.69963,7.62485 0.0166,10.54704 7.801111,18.09392 18.181701,17.62665 3.30122,-0.14859 4.54823,-0.48672 7.315629,-1.98359 z m -16.322759,-7.37603 c -0.002,-1.10684 -0.15546,-3.64256 -0.34088,-5.6349 l -0.33712,-3.62244 h 8.87568 8.875689 l -0.33347,2.81745 c -0.183409,1.5496 -0.33555,4.08532 -0.338079,5.63492 l -0.005,2.81745 h -8.196739 -8.19673 z m 4.49874,-3.08577 c 0,-1.59805 -0.25377,-2.6797 -0.66102,-2.81746 -0.47698,-0.16134 -0.66103,0.62312 -0.66103,2.81746 0,2.19432 0.18405,2.97879 0.66103,2.81744 0.40725,-0.13775 0.66102,-1.21939 0.66102,-2.81744 z m 4.3967,-0.28787 c -0.24226,-3.37169 -1.48818,-3.46764 -1.48818,-0.11462 0,1.45121 0.16262,2.80359 0.36136,3.00528 0.74052,0.75149 1.28766,-0.65213 1.12682,-2.89066 z m 4.32886,0.24315 c 0,-2.15683 -0.18521,-2.9346 -0.66103,-2.77597 -0.69641,0.23216 -1.19529,3.74793 -0.71286,5.02376 0.65622,1.73541 1.37389,0.56125 1.37389,-2.24779 z M 56.80334,211.37443 c -0.97232,-1.18893 -0.002,-2.59287 1.940991,-2.80823 1.1613,-0.12872 1.88091,-0.74696 2.96705,-2.54913 2.14723,-3.56275 4.67834,-2.85193 2.82134,0.79233 l -0.84507,1.6584 h 2.95199 2.952 l -0.90233,-1.55016 c -0.49628,-0.85257 -0.75517,-1.93932 -0.57531,-2.41496 0.58004,-1.53396 1.93721,-0.92444 3.39495,1.52473 1.09457,1.83897 1.77987,2.4263 2.974379,2.54912 1.956382,0.20117 2.937825,1.6022 1.959981,2.7979 -1.035839,1.26662 -18.604131,1.26662 -19.639971,0 z"
       id="path3717"
       inkscape:connector-curvature="0" />
  </g>
</svg>
