<?xml version="1.0" encoding="UTF-8" standalone="no"?>
<svg
   xmlns:dc="http://purl.org/dc/elements/1.1/"
   xmlns:cc="http://creativecommons.org/ns#"
   xmlns:rdf="http://www.w3.org/1999/02/22-rdf-syntax-ns#"
   xmlns:svg="http://www.w3.org/2000/svg"
   xmlns="http://www.w3.org/2000/svg"
   id="svg64"
   version="1.1"
   viewBox="0 0 31.361637 31.460489"
   height="31.460489mm"
   width="31.361637mm">
  <defs
     id="defs58" />
  <metadata
     id="metadata61">
    <rdf:RDF>
      <cc:Work
         rdf:about="">
        <dc:format>image/svg+xml</dc:format>
        <dc:type
           rdf:resource="http://purl.org/dc/dcmitype/StillImage" />
        <dc:title></dc:title>
      </cc:Work>
    </rdf:RDF>
  </metadata>
  <g
     transform="translate(-140.80132,-156.53761)"
     id="layer1">
    <path
       id="path45"
       d="m 153.8541,187.8398 c -4.89532,-0.67179 -9.68118,-4.29612 -11.92338,-9.02959 -1.07547,-2.27043 -1.1294,-2.58637 -1.1294,-6.61759 0,-4.0367 0.0528,-4.34479 1.13652,-6.63279 0.72833,-1.53769 1.87544,-3.13839 3.19393,-4.45688 3.53093,-3.53093 7.11629,-4.82855 12.4942,-4.52192 2.6974,0.1538 3.51837,0.36162 5.71267,1.4461 7.35872,3.63688 10.73141,12.40205 7.73215,20.09479 -2.61789,6.71458 -9.75325,10.7421 -17.21669,9.71788 z m 5.98489,-1.1949 c 7.47864,-1.94794 12.47029,-9.31732 11.22709,-16.57503 -1.41388,-8.25417 -9.01044,-13.88538 -16.92128,-12.54347 -6.30028,1.06871 -11.02428,5.55254 -12.32166,11.69523 -1.00968,4.7805 0.28916,9.36777 3.71051,13.10484 3.6559,3.99327 9.16676,5.65686 14.30534,4.31843 z m -11.31195,-6.66575 c -1.80892,-0.78747 -2.11974,-2.84124 -0.65211,-4.30888 0.74329,-0.74329 1.16624,-0.8787 2.4291,-0.77771 l 1.52911,0.12228 0.24565,-4.44256 0.24564,-4.44256 4.99817,-1.07632 c 3.74768,-0.80704 5.1189,-0.97796 5.48074,-0.68319 0.39056,0.31817 0.43681,1.47143 0.24254,6.04805 -0.13202,3.1102 -0.32074,5.93447 -0.41938,6.27614 -0.20904,0.72411 -1.88222,1.67183 -2.95157,1.67183 -1.22055,0 -2.79725,-1.01241 -3.03174,-1.9467 -0.55214,-2.19989 1.23261,-3.96752 3.61552,-3.58083 l 1.18011,0.1915 v -2.26205 -2.26206 l -1.14652,0.22901 c -0.63059,0.12595 -2.33716,0.48911 -3.79237,0.80701 l -2.64583,0.57801 -0.39751,4.56403 c -0.21864,2.51021 -0.41707,4.59963 -0.44098,4.64316 -0.0239,0.0435 -0.51182,0.32134 -1.08427,0.61736 -1.26026,0.65171 -1.96994,0.6589 -3.4043,0.0345 z m 2.70442,-1.27256 c 0.76904,-0.41157 0.89469,-1.39804 0.25903,-2.03369 -0.54572,-0.54572 -2.13539,-0.54572 -2.68111,0 -1.3575,1.35749 0.60563,3.00583 2.42208,2.03369 z m 9.78403,-2.17481 c 1.24009,-1.24009 -0.50198,-2.89422 -2.2225,-2.1103 -1.5973,0.72778 -0.84385,2.49443 1.07597,2.52291 0.39776,0.006 0.9137,-0.17977 1.14653,-0.41261 z m 0.26227,-9.19021 c 0.0404,-0.0483 0.18321,-0.44503 0.3174,-0.88159 0.29963,-0.97476 0.30324,-0.97478 -4.21328,0.0238 -3.29972,0.72954 -3.53469,0.83922 -3.63473,1.69669 l -0.10696,0.91672 3.78208,-0.83388 c 2.08014,-0.45863 3.81511,-0.87341 3.85549,-0.92172 z"
       style="fill:#767676;stroke-width:0.35277775" />
  </g>
</svg>
