<?xml version="1.0" encoding="UTF-8" standalone="no"?>
<svg
   xmlns:dc="http://purl.org/dc/elements/1.1/"
   xmlns:cc="http://creativecommons.org/ns#"
   xmlns:rdf="http://www.w3.org/1999/02/22-rdf-syntax-ns#"
   xmlns:svg="http://www.w3.org/2000/svg"
   xmlns="http://www.w3.org/2000/svg"
   id="svg110"
   version="1.1"
   viewBox="0 0 31.549194 31.334417"
   height="31.334417mm"
   width="31.549194mm">
  <defs
     id="defs104" />
  <metadata
     id="metadata107">
    <rdf:RDF>
      <cc:Work
         rdf:about="">
        <dc:format>image/svg+xml</dc:format>
        <dc:type
           rdf:resource="http://purl.org/dc/dcmitype/StillImage" />
        <dc:title></dc:title>
      </cc:Work>
    </rdf:RDF>
  </metadata>
  <g
     transform="translate(-85.523024,-212.54112)"
     id="layer1">
    <path
       id="path47"
       d="m 98.702474,243.71969 c -3.15211,-0.4587 -6.81178,-2.40609 -8.97999,-4.77845 -3.2171,-3.52002 -4.42705,-6.92884 -4.16479,-11.73356 0.27237,-4.98985 2.27699,-8.85553 6.09766,-11.75861 3.01729,-2.29265 5.03239,-2.89707 9.692956,-2.90737 3.83222,-0.008 4.18748,0.0529 6.41336,1.10741 8.06725,3.82192 11.48356,12.98093 7.88066,21.12772 -0.9775,2.21032 -4.15555,5.72795 -6.32206,6.99762 -2.87052,1.68223 -7.10015,2.45713 -10.617796,1.94524 z m 5.984886,-1.21245 c 2.91628,-0.7596 5.20617,-2.09972 7.21225,-4.22084 8.27416,-8.74871 3.64852,-22.58441 -8.32033,-24.88689 -6.136706,-1.18053 -12.929556,2.41012 -15.680406,8.28855 -2.75326,5.8836 -1.64408,12.30529 2.91459,16.8742 3.79797,3.8065 8.8693,5.24851 13.873896,3.94498 z m -9.101086,-7.8083 c -0.12935,-0.12935 -0.235189,-1.64246 -0.235189,-3.36246 0,-2.56985 0.10287,-3.16675 0.577119,-3.34874 1.2377,-0.47495 1.71099,0.36379 1.81958,3.22454 0.0649,1.70873 -0.0503,2.91589 -0.30778,3.22612 -0.43091,0.51921 -1.4516,0.66266 -1.85373,0.26054 z m 4.787776,-0.17463 c -0.3062,-0.3062 -0.436846,-1.93269 -0.436846,-5.43838 0,-5.35699 0.233056,-6.10295 1.755776,-5.61966 0.70455,0.22362 0.72776,0.43444 0.63429,5.76179 -0.0918,5.23395 -0.13497,5.53511 -0.80669,5.63139 -0.39033,0.0559 -0.90626,-0.0949 -1.14653,-0.33514 z m 4.73722,0.17463 c -0.12935,-0.12935 -0.23519,-3.68424 -0.23519,-7.89976 0,-6.66365 0.0729,-7.69253 0.55802,-7.8787 0.7469,-0.28661 0.72465,-0.29218 1.35706,0.34023 0.46743,0.46743 0.55438,1.67348 0.55438,7.69056 0,5.08 -0.12199,7.25817 -0.42334,7.55952 -0.46124,0.46123 -1.43652,0.56256 -1.81093,0.18815 z"
       style="fill:#767676;stroke-width:0.35277775" />
  </g>
</svg>
