<?xml version="1.0" encoding="UTF-8" standalone="no"?>
<svg
   xmlns:dc="http://purl.org/dc/elements/1.1/"
   xmlns:cc="http://creativecommons.org/ns#"
   xmlns:rdf="http://www.w3.org/1999/02/22-rdf-syntax-ns#"
   xmlns:svg="http://www.w3.org/2000/svg"
   xmlns="http://www.w3.org/2000/svg"
   id="svg3734"
   version="1.1"
   viewBox="0 0 42.091698 38.088264"
   height="38.088264mm"
   width="42.091698mm">
  <defs
     id="defs3728" />
  <metadata
     id="metadata3731">
    <rdf:RDF>
      <cc:Work
         rdf:about="">
        <dc:format>image/svg+xml</dc:format>
        <dc:type
           rdf:resource="http://purl.org/dc/dcmitype/StillImage" />
        <dc:title></dc:title>
      </cc:Work>
    </rdf:RDF>
  </metadata>
  <g
     transform="translate(-87.811294,-183.46182)"
     id="layer1">
    <path
       id="path3713"
       d="m 102.137,220.9492 c -3.572906,-1.04574 -6.284136,-2.66711 -9.195246,-5.49896 -4.09563,-3.98412 -5.13046,-6.58541 -5.13046,-12.8966 0,-4.79282 0.18401,-5.72775 1.65648,-8.41627 2.23998,-4.08986 7.04949,-8.08016 11.587526,-9.6138 2.97779,-1.00635 4.47575,-1.17763 8.75242,-1.00074 6.40866,0.26507 10.55539,1.91951 14.65057,5.8452 4.3896,4.20794 5.4447,6.7631 5.4447,13.18561 0,6.42251 -1.0551,8.97768 -5.4447,13.18561 -4.14218,3.97076 -8.25114,5.59418 -14.65057,5.78833 -3.19444,0.0969 -6.11616,-0.12338 -7.67072,-0.57838 z m 14.90845,-2.32534 c 9.78549,-3.84129 14.25713,-14.44874 9.82449,-23.30535 -4.2637,-8.51909 -14.88234,-12.56801 -24.92787,-9.50508 -4.621946,1.40926 -10.194256,6.41172 -11.740286,10.53968 -3.22404,8.60825 0.85335,17.93288 9.59459,21.94195 5.542166,2.54186 11.330316,2.65219 17.249076,0.3288 z m -15.05607,-6.8531 c -0.44008,-0.47547 -0.63547,-2.33298 -0.52461,-4.98739 0.15836,-3.79195 0.31668,-4.28482 1.5296,-4.76197 1.17964,-0.46406 1.35294,-0.9334 1.35294,-3.66395 0,-4.02393 1.64328,-5.77858 5.41179,-5.77858 3.76852,0 5.4118,1.75465 5.4118,5.77858 0,2.73055 0.1733,3.19989 1.35295,3.66395 1.21291,0.47715 1.37123,0.97002 1.52959,4.76197 0.11085,2.65441 -0.0845,4.51192 -0.52461,4.98739 -0.52954,0.57213 -2.43214,0.75765 -7.76973,0.75765 -5.33758,0 -7.24018,-0.18552 -7.76972,-0.75765 z m 8.73773,-1.80344 c 0.18092,-0.51895 0.71448,-1.5889 1.18569,-2.37764 1.41857,-2.37452 -0.40848,-4.25744 -3.32556,-3.42726 -1.79901,0.51198 -2.00715,2.10514 -0.59289,4.53811 1.3837,2.38037 2.21086,2.76381 2.73276,1.26679 z m 2.03854,-10.9059 c 0,-2.26738 -0.23308,-2.8204 -1.50327,-3.56666 -1.39256,-0.81816 -1.61399,-0.81816 -3.00655,0 -1.27019,0.74626 -1.50328,1.29928 -1.50328,3.56666 v 2.68346 h 3.00655 3.00655 z"
       style="fill:#0c0c0c;stroke-width:0.56939667" />
  </g>
</svg>
