<?xml version="1.0" encoding="UTF-8" standalone="no"?>
<svg
   xmlns:dc="http://purl.org/dc/elements/1.1/"
   xmlns:cc="http://creativecommons.org/ns#"
   xmlns:rdf="http://www.w3.org/1999/02/22-rdf-syntax-ns#"
   xmlns:svg="http://www.w3.org/2000/svg"
   xmlns="http://www.w3.org/2000/svg"
   id="svg8"
   version="1.1"
   viewBox="0 0 136.87779 146.67903"
   height="554.37744"
   width="517.33337">
  <defs
     id="defs2" />
  <metadata
     id="metadata5">
    <rdf:RDF>
      <cc:Work
         rdf:about="">
        <dc:format>image/svg+xml</dc:format>
        <dc:type
           rdf:resource="http://purl.org/dc/dcmitype/StillImage" />
        <dc:title></dc:title>
      </cc:Work>
    </rdf:RDF>
  </metadata>
  <g
     transform="translate(-72.924195,-77.704188)"
     id="layer1">
    <path
       id="path23"
       d="m 134.48164,224.16298 c -2.72424,-0.87062 -4.80426,-2.75992 -6.0605,-5.50483 -0.73895,-1.61462 -0.81771,-2.36381 -0.9306,-8.85286 l -0.12334,-7.08896 -1.92714,-0.60748 c -1.05993,-0.33411 -3.4671,-1.3872 -5.34927,-2.3402 l -3.42214,-1.73272 -1.73925,1.84444 c -8.01566,8.50046 -9.26055,9.42227 -12.72464,9.42227 -3.060375,0 -4.801845,-1.11958 -9.625335,-6.18808 -5.29439,-5.56332 -5.89976,-6.6672 -5.88888,-10.73836 0.0107,-4.0101 0.63403,-5.12356 6.12134,-10.93492 l 4.36546,-4.62326 -1.09533,-2.37637 c -0.60244,-1.307 -1.53402,-3.74788 -2.07019,-5.42418 l -0.97485,-3.04781 -6.705,-0.11409 c -6.07731,-0.10341 -6.8371,-0.1855 -8.11611,-0.87692 -1.9187,-1.03724 -3.50712,-2.76811 -4.47985,-4.88161 -0.76348,-1.65886 -0.81182,-2.19453 -0.81182,-8.99583 0,-6.80131 0.0483,-7.33698 0.81182,-8.99584 0.97273,-2.1135 2.56115,-3.84437 4.47985,-4.88161 1.27908,-0.69146 2.03875,-0.77351 8.11921,-0.87696 l 6.7081,-0.11412 0.98082,-3.06088 c 0.53945,-1.68348 1.50933,-4.19017 2.15528,-5.57043 l 1.17447,-2.50957 -4.54576,-4.89877 c -5.56881,-6.00128 -6.12819,-7.01368 -6.11772,-11.07238 0.0102,-3.9559 0.53535,-4.90858 5.84433,-10.602487 4.85991,-5.21227 6.29169,-6.11686 9.653605,-6.09906 3.44018,0.0182 4.43466,0.65466 9.89612,6.33335 l 4.94068,5.137177 3.33393,-1.62265 c 1.83366,-0.89246 4.16065,-1.88326 5.1711,-2.20178 l 1.83717,-0.579117 0.12701,-7.08896 c 0.1172,-6.54142 0.19148,-7.23305 0.96169,-8.95434 1.05677,-2.36172 3.43212,-4.49136 5.7908,-5.19182 2.44456,-0.72595 11.77427,-0.7301 14.21152,-0.006 2.34236,0.69561 4.46183,2.5806 5.67157,5.04412 0.97055,1.97645 0.99427,2.17015 1.11517,9.10985 l 0.12354,7.09046 1.83242,0.577617 c 1.00782,0.31769 3.26323,1.27401 5.01199,2.12515 l 3.17958,1.54754 4.31199,-4.667467 c 5.88893,-6.3744 8.30399,-7.58994 12.65603,-6.36995 1.90871,0.53506 2.34585,0.88531 6.72164,5.38549 5.58432,5.743067 6.49459,7.284897 6.49459,11.000697 0,4.20757 -0.65544,5.2362 -8.82735,13.85336 l -1.56479,1.65004 1.42662,3.28885 c 0.78464,1.80887 1.78694,4.428 2.22733,5.82028 l 0.80071,2.53144 6.72997,0.1144 c 6.59821,0.11216 6.76206,0.13326 8.36849,1.07762 1.9432,1.14233 3.31552,2.68319 4.32631,4.85761 0.67313,1.44805 0.73796,2.22279 0.73796,8.81945 0,8.05789 -0.20979,8.98965 -2.64971,11.76856 -2.28643,2.6041 -3.20018,2.85721 -10.77985,2.98607 l -6.72678,0.11436 -0.98695,3.06064 c -0.54282,1.68336 -1.50818,4.19924 -2.14523,5.59086 l -1.1583,2.53022 4.23142,4.52534 c 5.05004,5.40082 5.99015,7.07994 5.99015,10.69894 0,3.63636 -0.93013,5.31692 -5.90934,10.67702 -4.9613,5.34081 -6.17147,6.08612 -9.85153,6.06729 -1.63591,-0.008 -2.88621,-0.22269 -3.70416,-0.63495 -0.6791,-0.34227 -3.30047,-2.77058 -5.82526,-5.39626 l -4.59053,-4.77395 -3.33129,1.62137 c -1.83222,0.89175 -4.15802,1.88198 -5.16847,2.20049 l -1.83718,0.57912 -0.12333,7.08896 c -0.1129,6.48905 -0.19165,7.23824 -0.9306,8.85286 -0.96618,2.11111 -2.55387,3.84293 -4.47529,4.88153 -1.28458,0.69436 -1.99631,0.76917 -7.9375,0.83432 -3.58951,0.0394 -6.92429,-0.0556 -7.41062,-0.21102 z m 13.40784,-44.8926 c 8.90042,-2.34489 15.88952,-9.17189 19.08687,-18.64417 0.99131,-2.93679 1.15156,-3.94142 1.29538,-8.12076 0.12204,-3.54666 0.0186,-5.47304 -0.40352,-7.51416 -2.26706,-10.96233 -10.11938,-19.5456 -20.25189,-22.13706 -3.25756,-0.83314 -8.80883,-0.89956 -12.01487,-0.14375 -10.38629,2.44852 -18.53765,11.24983 -20.86731,22.53115 -0.55188,2.67249 -0.55188,9.04666 0,11.71915 1.21214,5.86976 4.72988,12.38011 8.60105,15.91815 7.00964,6.40641 15.80632,8.69618 24.55429,6.39145 z m -9.9027,-13.8122 c -3.6335,-1.03081 -7.39717,-4.28229 -8.97504,-7.75366 -2.60452,-5.73003 -1.59859,-12.4439 2.52496,-16.85231 5.66151,-6.05261 13.99128,-6.05261 19.65279,0 4.1093,4.39318 5.11414,11.12792 2.51623,16.86451 -1.16904,2.58142 -4.05141,5.51336 -6.70388,6.81917 -2.58992,1.27501 -6.39836,1.66463 -9.01506,0.92229 z"
       style="fill:#fefefe;stroke-width:0.35277778" />
    <path
       id="path21"
       d="m -30.842864,468.95042 -2.57023,-2.57024 v -7.92091 -7.92094 l -4.55178,-1.70225 c -2.50348,-0.93622 -4.73472,-1.99824 -4.9583,-2.36003 -0.97272,-1.57387 -3.08347,-0.31591 -7.775278,4.63392 -4.898369,5.16771 -5.103759,5.29166 -8.769601,5.29166 -3.666429,0 -3.880575,-0.12933 -9.204968,-5.55828 -3.994597,-4.07305 -5.586957,-6.28187 -5.959221,-8.26622 -0.669242,-3.56735 0.645216,-7.33274 3.509169,-10.05229 1.276302,-1.21198 3.331866,-3.47139 4.567915,-5.02092 l 2.24736,-2.81734 -2.128541,-5.62125 -2.128544,-5.62124 -7.292978,-0.25487 c -5.993399,-0.20944 -7.594806,-0.52427 -8.986774,-1.76675 -2.705917,-2.41536 -3.752987,-5.89534 -3.752987,-12.47323 0,-11.34041 2.868578,-14.35555 13.662213,-14.36026 l 6.480664,-0.003 2.254935,-5.90698 2.254933,-5.90698 -5.105427,-5.52641 c -7.647797,-8.27839 -7.741345,-11.45669 -0.574849,-19.52995 5.023895,-5.65957 6.856997,-6.9146 10.131697,-6.93656 2.929784,-0.0196 3.55854,0.40579 9.574282,6.47859 l 5.03857,5.08635 4.41084,-1.9227 c 2.42596,-1.05749 5.00614,-2.12675 5.73375,-2.37614 1.14853,-0.39368 1.32292,-1.51286 1.32292,-8.49027 v -8.0368 l 2.57023,-2.57024 2.57024,-2.57024 h 7.53318 c 6.48224,0 7.8117,0.2191 9.52977,1.57051 3.1599002,2.4856 3.8098302,4.36486 4.2345702,12.24441 l 0.39831,7.38934 5.17594,2.40139 5.17593,2.40138 4.43695,-4.96374 c 7.5834998,-8.48387 11.2493098,-8.71956 18.6020398,-1.196 5.56345,5.69272 6.29664,7.02416 6.29664,11.43424 0,3.12806 -0.41892,3.88911 -5.05555,9.18435 -4.97481,5.68145 -5.04012,5.81189 -4.08882,8.16729 0.5317,1.31648 1.50127,3.9793 2.15461,5.91738 l 1.18787,3.52377 7.42363,0.25598 c 7.23093,0.24935 7.48773,0.3201 9.89351,2.7255 2.4475,2.44713 2.47219,2.54463 2.72553,10.76421 0.22751,7.38174 0.0802,8.57855 -1.33821,10.87366 -2.10154,3.40034 -2.96003,3.72086 -11.26663,4.20634 l -7.05753,0.41249 -2.28945,5.93823 -2.28946,5.93822 4.15834,4.26713 c 5.09584,5.22917 5.84216,6.63387 5.84216,10.99576 0,2.98339 -0.44715,3.9425 -3.45942,7.42024 -5.90736,6.82016 -7.78954,8.15173 -11.52265,8.15173 -3.08989,0 -3.70401,-0.37049 -8.7921998,-5.30423 l -5.47027,-5.30424 -4.08755001,1.80856 c -2.24814999,0.99473 -4.68285999,2.01026 -5.41045999,2.25671 -1.11059,0.37619 -1.32292,1.40743 -1.32292,6.42499 0,8.07024 -0.57009,10.39937 -3.1855402,13.01483 -2.17767,2.17767 -2.38262,2.22242 -10.17737,2.22242 h -7.95495 z m 19.72815,-42.09505 c 5.4640502,-2.04435 12.2714902,-8.30394 14.9256702,-13.72449 2.95515,-6.0352 4.06779,-13.08708 2.9842,-18.91379 -2.51641,-13.53137 -12.60264,-23.41645 -25.0439902,-24.5446 -12.62579,-1.14485 -24.95239,7.76668 -28.40965,20.53883 -1.7499,6.46467 -1.28719,15.9552 1.03124,21.15093 6.13454,13.74788 21.15506,20.49081 34.51253,15.49312 z"
       style="fill:#800000;stroke-width:0.75595242" />
  </g>
</svg>
